<mxfile host="app.diagrams.net" agent="Mozilla/5.0 (Windows NT 10.0; Win64; x64) AppleWebKit/537.36 (KHTML, like Gecko) Chrome/135.0.0.0 Safari/537.36" version="26.2.13">
  <diagram name="Pagina-1" id="VX7PT2sa4RGvYPbcMWUg">
    <mxGraphModel dx="1212" dy="642" grid="1" gridSize="10" guides="1" tooltips="1" connect="1" arrows="1" fold="1" page="1" pageScale="1" pageWidth="1169" pageHeight="1654" math="0" shadow="0">
      <root>
        <mxCell id="0" />
        <mxCell id="1" parent="0" />
        <mxCell id="Zv-x9roUwf_AeT_ahScK-1" value="SmarTrip (user client)" style="shape=cube;whiteSpace=wrap;html=1;boundedLbl=1;backgroundOutline=1;darkOpacity=0.05;darkOpacity2=0.1;size=10;verticalAlign=top;" parent="1" vertex="1">
          <mxGeometry x="330" y="140" width="270" height="100" as="geometry" />
        </mxCell>
        <mxCell id="Zv-x9roUwf_AeT_ahScK-2" value="SmarTrip Setup (admin client)" style="shape=cube;whiteSpace=wrap;html=1;boundedLbl=1;backgroundOutline=1;darkOpacity=0.05;darkOpacity2=0.1;size=10;verticalAlign=top;" parent="1" vertex="1">
          <mxGeometry x="640" y="140" width="270" height="100" as="geometry" />
        </mxCell>
        <mxCell id="Zv-x9roUwf_AeT_ahScK-3" value="Server App" style="shape=cube;whiteSpace=wrap;html=1;boundedLbl=1;backgroundOutline=1;darkOpacity=0.05;darkOpacity2=0.1;size=10;verticalAlign=top;" parent="1" vertex="1">
          <mxGeometry x="485" y="310" width="250" height="210" as="geometry" />
        </mxCell>
        <mxCell id="Zv-x9roUwf_AeT_ahScK-5" value="" style="endArrow=none;html=1;rounded=0;entryX=0;entryY=0;entryDx=140;entryDy=100;entryPerimeter=0;exitX=0.247;exitY=0.017;exitDx=0;exitDy=0;exitPerimeter=0;" parent="1" source="Zv-x9roUwf_AeT_ahScK-3" target="Zv-x9roUwf_AeT_ahScK-1" edge="1">
          <mxGeometry width="50" height="50" relative="1" as="geometry">
            <mxPoint x="700" y="410" as="sourcePoint" />
            <mxPoint x="750" y="360" as="targetPoint" />
          </mxGeometry>
        </mxCell>
        <mxCell id="Zv-x9roUwf_AeT_ahScK-6" value="" style="endArrow=none;html=1;rounded=0;exitX=0.771;exitY=0.02;exitDx=0;exitDy=0;exitPerimeter=0;entryX=0;entryY=0;entryDx=140;entryDy=100;entryPerimeter=0;" parent="1" source="Zv-x9roUwf_AeT_ahScK-3" target="Zv-x9roUwf_AeT_ahScK-2" edge="1">
          <mxGeometry width="50" height="50" relative="1" as="geometry">
            <mxPoint x="700" y="410" as="sourcePoint" />
            <mxPoint x="750" y="360" as="targetPoint" />
          </mxGeometry>
        </mxCell>
        <mxCell id="Zv-x9roUwf_AeT_ahScK-7" value="&amp;lt;&amp;lt;database&amp;gt;&amp;gt;&lt;div&gt;SQL&lt;/div&gt;" style="shape=cylinder3;whiteSpace=wrap;html=1;boundedLbl=1;backgroundOutline=1;size=15;" parent="1" vertex="1">
          <mxGeometry x="535" y="570" width="160" height="150" as="geometry" />
        </mxCell>
        <mxCell id="Zv-x9roUwf_AeT_ahScK-8" value="&amp;lt;&amp;lt;component&amp;gt;&amp;gt;&lt;div&gt;Mobile App&lt;/div&gt;" style="shape=module;align=left;spacingLeft=20;align=center;verticalAlign=top;whiteSpace=wrap;html=1;" parent="1" vertex="1">
          <mxGeometry x="360" y="180" width="210" height="50" as="geometry" />
        </mxCell>
        <mxCell id="Zv-x9roUwf_AeT_ahScK-9" value="&amp;lt;&amp;lt;component&amp;gt;&amp;gt;&lt;div&gt;Mobile App&lt;/div&gt;" style="shape=module;align=left;spacingLeft=20;align=center;verticalAlign=top;whiteSpace=wrap;html=1;" parent="1" vertex="1">
          <mxGeometry x="670" y="180" width="210" height="50" as="geometry" />
        </mxCell>
        <mxCell id="Zv-x9roUwf_AeT_ahScK-10" value="&amp;lt;&amp;lt;component&amp;gt;&amp;gt;&lt;div&gt;Controller&lt;/div&gt;" style="shape=module;align=left;spacingLeft=20;align=center;verticalAlign=top;whiteSpace=wrap;html=1;" parent="1" vertex="1">
          <mxGeometry x="510" y="350" width="210" height="100" as="geometry" />
        </mxCell>
        <mxCell id="Zv-x9roUwf_AeT_ahScK-11" value="&amp;lt;&amp;lt;component&amp;gt;&amp;gt;&lt;div&gt;Model&lt;/div&gt;" style="shape=module;align=left;spacingLeft=20;align=center;verticalAlign=top;whiteSpace=wrap;html=1;" parent="1" vertex="1">
          <mxGeometry x="510" y="460" width="210" height="50" as="geometry" />
        </mxCell>
        <mxCell id="Zv-x9roUwf_AeT_ahScK-13" value="" style="endArrow=none;html=1;rounded=0;exitX=0.5;exitY=0;exitDx=0;exitDy=0;exitPerimeter=0;entryX=0;entryY=0;entryDx=130;entryDy=210;entryPerimeter=0;" parent="1" source="Zv-x9roUwf_AeT_ahScK-7" target="Zv-x9roUwf_AeT_ahScK-3" edge="1">
          <mxGeometry width="50" height="50" relative="1" as="geometry">
            <mxPoint x="680" y="560" as="sourcePoint" />
            <mxPoint x="620" y="540" as="targetPoint" />
          </mxGeometry>
        </mxCell>
        <mxCell id="_GEy8ExfPIXIOv9Z5U6f-1" value="&amp;lt;&amp;lt;component&amp;gt;&amp;gt;&lt;div&gt;API Rest&lt;/div&gt;" style="shape=module;align=left;spacingLeft=20;align=center;verticalAlign=top;whiteSpace=wrap;html=1;" vertex="1" parent="1">
          <mxGeometry x="540" y="390" width="170" height="50" as="geometry" />
        </mxCell>
      </root>
    </mxGraphModel>
  </diagram>
</mxfile>
